<svg width="32" height="32" viewBox="0 0 32 32" fill="none" xmlns="http://www.w3.org/2000/svg">
<g id="Position=Jungle">
<g id="Group 9">
<g id="Group 3">
<mask id="mask0_1046_34611" style="mask-type:luminance" maskUnits="userSpaceOnUse" x="3" y="4" width="15" height="26">
<path id="Clip 2" fill-rule="evenodd" clip-rule="evenodd" d="M3.91394 4.20068H17.1254V29.0009H3.91394V4.20068Z" fill="white"/>
</mask>
<g mask="url(#mask0_1046_34611)">
<path id="Fill 1" fill-rule="evenodd" clip-rule="evenodd" d="M3.91394 10.0332C3.91394 10.0332 7.62292 15.0934 7.08205 20.9659L16.5074 29.0009C16.5074 29.0009 20.3706 13.9392 8.7818 4.20068C8.7818 4.20068 12.5456 10.8064 11.331 17.1798C11.331 17.1798 9.39981 12.5443 3.91394 10.0332Z" fill="white"/>
</g>
</g>
<path id="Fill 4" fill-rule="evenodd" clip-rule="evenodd" d="M17.4343 12.4674C17.4343 12.4674 18.3618 17.1549 18.2586 18.2358L21.0402 13.7424C21.0402 13.7424 20.937 9.47954 23.6144 2.98999C23.6144 2.98999 19.2363 8.70727 17.4343 12.4674Z" fill="white"/>
<g id="Group 8">
<mask id="mask1_1046_34611" style="mask-type:luminance" maskUnits="userSpaceOnUse" x="18" y="10" width="10" height="17">
<path id="Clip 7" fill-rule="evenodd" clip-rule="evenodd" d="M18.5682 10.6133H27.9422V26.5291H18.5682V10.6133Z" fill="white"/>
</mask>
<g mask="url(#mask1_1046_34611)">
<path id="Fill 6" fill-rule="evenodd" clip-rule="evenodd" d="M27.9425 10.6133C27.9425 10.6133 19.6491 14.3734 18.5682 26.5291C18.5682 26.5291 21.504 23.2318 23.6155 21.7393C23.6155 21.7393 23.6155 14.5797 27.9425 10.6133Z" fill="white"/>
</g>
</g>
</g>
</g>
</svg>
