<svg width="32" height="32" viewBox="0 0 32 32" fill="none" xmlns="http://www.w3.org/2000/svg">
<g id="Position=Middle">
<g id="Group 4">
<path id="Fill 1" fill-rule="evenodd" clip-rule="evenodd" d="M5 5.00122V19.3622L8.001 16.3632V8.00122H16.362L19.361 5.00122H5ZM6.1 6.10122H16.706L15.906 6.90022H8.001H6.901V8.00122V15.9062L6.1 16.7072V6.10122Z" fill="white" fill-opacity="0.1"/>
<path id="Fill 2" fill-rule="evenodd" clip-rule="evenodd" d="M22.8371 5.00122L19.8371 8.00122L8.00012 19.8372L5.00012 22.8382V27.0182H9.12312L12.1231 24.0182L24.0171 12.1242L27.0171 9.12422V5.00122H22.8371Z" fill="white"/>
<path id="Fill 3" fill-rule="evenodd" clip-rule="evenodd" d="M24.017 15.6562V24.0183H15.655L12.655 27.0183H27.017V12.6562L24.017 15.6562ZM16.111 25.1182H24.017H25.117V24.0182V16.1122L25.917 15.3112V25.9183H15.31L16.111 25.1182Z" fill="white" fill-opacity="0.1"/>
</g>
</g>
</svg>
